<?xml version="1.0" encoding="utf-8"?>
<!-- Svg Vector Icons : http://www.onlinewebfonts.com/icon -->
<!DOCTYPE svg PUBLIC "-//W3C//DTD SVG 1.1//EN" "http://www.w3.org/Graphics/SVG/1.1/DTD/svg11.dtd">
<svg version="1.1" xmlns="http://www.w3.org/2000/svg" xmlns:xlink="http://www.w3.org/1999/xlink" x="0px" y="0px" viewBox="0 0 1000 1000" enable-background="new 0 0 1000 1000" xml:space="preserve">
<metadata> Svg Vector Icons : http://www.onlinewebfonts.com/icon </metadata>
<g><path d="M505.3,50.3v906.8V50.3L505.3,50.3z M777.9,270.1l1.2,603.4c0,31.6-13.1,48.6-44.8,48.6l-460.9-1.2c-31.7,0-45.7-14.4-45.7-46.1V270.1h-71.4V875c0,63.5,51.6,115,115.1,115h460.2c63.5,0,115.1-51.6,115.1-115V270.1H777.9L777.9,270.1z M324,399.5v428.3c0,2.8,0.4,5.5,1.1,8.1c21.1,0,42.2-0.1,63.2-0.1c0.7-2.5,1.1-5.2,1.1-7.9V399.7C367.6,399.6,345.8,399.6,324,399.5L324,399.5z M612.8,401.1v426.8c0,2.2,0.3,4.4,0.7,6.5c21.3-0.1,42.6-0.2,63.9-0.2c0.4-2,0.7-4.1,0.7-6.3V401.3C656.4,401.2,634.6,401.2,612.8,401.1L612.8,401.1z M966.3,154.1H710.7V82c1.2-58-46.6-72-94.4-72H386.7c-59.3,0-93.1,22.3-93.1,70l-0.3,74.1H33.7v70.4h932.5V154.1L966.3,154.1z M645.3,154.1H357.7v-50.4c0-16,11.3-29.9,27.3-29.9l230.1,1.2c16,0,30.1,11.5,30.1,27.5L645.3,154.1L645.3,154.1L645.3,154.1z M470.7,401.1v426.8c0,2.2,0.3,4.4,0.7,6.5c21.1-0.1,42.3-0.2,63.4-0.2c0.4-2,0.7-4.1,0.7-6.3l0-426.6C513.9,401.3,492.3,401.2,470.7,401.1L470.7,401.1z"/></g>
</svg>